<svg viewBox="0 0 250 151" fill="none" xmlns="http://www.w3.org/2000/svg">
  <g opacity="0.8" clip-path="url(#clip0_6_149)">
    <rect width="250" height="150" transform="translate(0 0.879883)" fill="url(#paint0_linear_6_149)" />
    <path d="M-0.638181 -60.3908C23.2516 -41.9757 59.5841 -14.1043 59.5841 -14.1043C62.5703 -16.2516 75.8866 -16.2516 75.8866 -16.2516C75.8866 -16.2516 86.9952 -18.5145 91.643 -17.4036C96.3046 -16.2964 102.074 -12.5814 104.253 -8.96267C106.441 -5.33887 107.703 -1.07758 107.703 -1.07758L108.647 4.97075C108.647 4.97075 115.516 11.9957 116.007 14.5615C116.507 17.1324 117.214 21.3871 117.214 21.3871L117.032 25.1419L116.378 27.9175L118.297 34.052C118.297 34.052 119.333 39.678 118.097 43.058C116.862 46.438 113.774 51.6606 112.76 52.7342C111.746 53.8079 106.319 57.7533 104.846 58.7946C103.373 59.8359 96.4445 61.4335 96.4445 61.4335L90.5993 62.241L86.0848 62.2317C86.0848 62.2317 82.5285 76.9495 80.9344 79.1726C79.3352 81.4045 75.6585 81.8841 75.6585 81.8841C75.6585 81.8841 68.2899 79.4504 66.2424 77.646C64.1949 75.8416 53.2488 64.1052 53.2488 64.1052L47.2666 54.9944L38.171 39.9997L-16.2397 2.36989L-54.8879 -24.556L-0.638181 -60.3908Z" fill="#E9D4FF" />
    <path d="M99.6852 81.2833L125.1 50.2273L101.921 33.9994L97.362 34.2849L92.884 37.0961L89.0377 40.6955C88.3627 47.6389 86.4417 62.9358 84.1573 68.5761L99.6852 81.2833Z" fill="#AD61FF" />
    <path d="M-55.2122 -24.4229C-55.2122 -24.4229 37.9955 39.1074 38.4944 40.0004C41.1759 44.8012 43.563 49.1176 45.3793 52.4724C56.4271 72.3358 75.1202 88.7826 80.8136 78.8919C86.507 69.0011 95.9152 17.5634 81.6194 21.8192C67.3237 26.0749 66.9996 55.6873 66.9996 55.6873" stroke="#271A58" stroke-miterlimit="10" stroke-linecap="round" stroke-linejoin="round" />
    <path d="M71.8938 30.7282C71.8938 30.7282 67.5442 14.3562 52.1894 8.37239" stroke="#271A58" stroke-miterlimit="10" stroke-linecap="round" stroke-linejoin="round" />
    <path d="M69.7116 24.8505C69.7116 24.8505 68.7906 15.319 80.1359 9.05417C98.1897 -0.906834 121.552 26.0514 118.111 41.2134C117.84 42.4065 117.514 43.5335 117.138 44.5982" stroke="#271A58" stroke-miterlimit="10" stroke-linecap="round" stroke-linejoin="round" />
    <path d="M89.1277 40.6676C89.6986 40.4012 95.3126 29.7862 95.3126 29.7862" stroke="#271A58" stroke-miterlimit="10" stroke-linecap="round" stroke-linejoin="round" />
    <path d="M116.319 27.898C116.319 27.898 122.608 9.7546 99.6041 -0.2231C77.2159 -9.92813 64.9569 11.8306 63.7385 15.891" stroke="#271A58" stroke-miterlimit="10" stroke-linecap="round" stroke-linejoin="round" />
    <path d="M108.709 4.96855C108.709 4.96855 107.796 -12.4537 92.7557 -16.8263C77.7151 -21.1989 65.0619 -10.6913 63.4267 -5.09438C61.7915 0.502503 68.0983 8.18587 68.0983 8.18587" stroke="#271A58" stroke-miterlimit="10" stroke-linecap="round" stroke-linejoin="round" />
    <path d="M84.8133 68.469L99.2166 81.0748L124.79 50.1024L102.947 34.4697C101.306 33.2825 96.226 32.8656 89.0384 40.695" stroke="#271A58" stroke-linecap="round" />
    <ellipse cx="112.292" cy="65.7398" rx="7.2275" ry="20.1278" transform="rotate(40.9498 112.292 65.7398)" fill="#9A48F1" stroke="#271A58" stroke-linecap="round" />
    <path d="M115.545 61.9627C114.198 60.5707 117.705 56.8975 118.877 57.7944L130.995 67.9222C131.78 68.9513 129.477 72.3349 128.051 71.958L115.545 61.9627Z" fill="#E9D4FF" stroke="#271A58" stroke-linecap="round" />
    <path d="M105.53 73.6424C104.182 72.2504 107.69 68.5772 108.862 69.474L120.98 79.6019C121.765 80.631 119.462 84.0146 118.035 83.6377L105.53 73.6424Z" fill="#E9D4FF" stroke="#271A58" stroke-linecap="round" />
    <path d="M63.613 15.7383L65.882 11.4785C50.4531 -0.963707 19.7915 -3.52287 -17.5545 13.0113C-54.5624 29.3957 -89.0581 5.5459 -104.155 -13.3668L-109.292 -10.2814C-92.4884 8.22876 -57.6396 36.886 -15.0658 17.4908C29.8434 -2.9682 55.47 7.52971 63.613 15.7383Z" fill="#AD61FF" stroke="#271A58" stroke-linecap="round" />
    <path d="M147.364 174.661L156.413 150.559C156.413 150.559 141.109 137.541 138.212 133.926C135.314 130.311 131.36 121.954 131.589 118.454C131.819 114.954 134.573 110.165 137.198 108.822C139.822 107.479 145.339 104.97 145.339 104.97L152.334 90.4792C152.334 90.4792 161.03 79.9249 164.415 78.289C167.799 76.6636 173.51 75.1226 177.175 75.656C180.839 76.1893 185.133 79.8015 185.133 79.8015L189.145 84.4055C189.145 84.4055 193.674 74.9588 201.356 74.0717C209.039 73.1846 212.582 81.9348 212.582 81.9348L215.916 89.8541L216.728 91.1849L224.625 89.6602C224.625 89.6602 231.371 89.3349 233.11 96.4375C234.85 103.54 233.943 108.662 233.943 108.662C233.943 108.662 232.37 119.526 232.021 120.735C231.672 121.945 228.594 128.318 228.594 128.318L223.648 133.687L221.902 134.254L217.089 144.689L211.943 150.622L208.061 152.866L203.669 154.322L193.147 182.997C193.147 182.997 180.221 182.376 175.373 181.942C170.524 181.508 160.478 179.134 160.478 179.134L147.364 174.661Z" fill="#E9D4FF" />
    <path d="M153.709 72.4471L167.569 87.1083L168.119 103.517C161.743 102.243 146.418 101.695 136.131 109.7L127.356 102.422L153.709 72.4471Z" fill="#AD61FF" />
    <path d="M147.12 174.246L156.251 149.875C156.251 149.875 124.142 128.647 133.033 113.416C141.925 98.1849 185.322 101.887 184.307 111.565C183.292 121.242 149.737 121.976 149.737 121.976" stroke="#271A58" stroke-miterlimit="10" stroke-linecap="round" stroke-linejoin="round" />
    <path d="M167.04 120.585C171.086 130.391 189.756 133.467 193.377 113.818C197.677 90.5267 185.66 71.7919 169.054 76.5718C166.222 77.3868 163.647 78.7901 161.328 80.5486" stroke="#271A58" stroke-miterlimit="10" stroke-linecap="round" stroke-linejoin="round" />
    <path d="M167.569 87.1084L168.101 103.511" stroke="#271A58" stroke-miterlimit="10" stroke-linecap="round" stroke-linejoin="round" />
    <path d="M189.069 84.2182C189.524 83.6846 194.518 71.5066 204.595 74.3598C217.707 78.0701 224.959 111.145 209.2 127.024C197.178 139.13 186.129 126.714 186.129 126.714" stroke="#271A58" stroke-miterlimit="10" stroke-linecap="round" stroke-linejoin="round" />
    <path d="M216.81 91.5688C216.81 91.5688 226.703 87.4722 230.297 91.4394C237.334 99.2003 234.289 130.469 219.76 135.265C209.54 138.634 207.209 128.924 207.209 128.924" stroke="#271A58" stroke-miterlimit="10" stroke-linecap="round" stroke-linejoin="round" />
    <path d="M221.759 134.712C221.759 134.712 216.046 153.057 203.904 153.789L192.936 182.839" stroke="#271A58" stroke-miterlimit="10" stroke-linecap="round" stroke-linejoin="round" />
    <path d="M167.569 87.1083L153.709 72.4471L127.356 102.422L136.131 109.7" stroke="#271A58" stroke-linecap="round" />
    <ellipse rx="7.2275" ry="20.1278" transform="matrix(-0.770943 -0.636904 -0.636904 0.770943 140.345 87.3516)" fill="#9A48F1" stroke="#271A58" stroke-linecap="round" />
    <mask id="mask0_6_149" style="mask-type:alpha" maskUnits="userSpaceOnUse" x="125" y="70" width="30" height="35">
      <ellipse rx="7.2275" ry="20.1278" transform="matrix(-0.770943 -0.636904 -0.636904 0.770943 140.345 87.3516)" fill="#9A48F1" stroke="#271A58" stroke-linecap="round" />
    </mask>
    <g mask="url(#mask0_6_149)">
      <ellipse rx="1.13932" ry="3.17287" transform="matrix(-0.770943 -0.636904 -0.636904 0.770943 148.525 86.3826)" fill="#271A58" stroke="#271A58" stroke-linecap="round" />
      <ellipse rx="1.13932" ry="3.17287" transform="matrix(-0.770943 -0.636904 -0.636904 0.770943 140.453 96.5457)" fill="#271A58" stroke="#271A58" stroke-linecap="round" />
    </g>
    <path d="M154.195 76.0306C150.346 77.4445 145.233 81.4688 140.613 87.0621C135.816 92.868 132.78 98.8751 132.277 102.937" stroke="#271A58" stroke-linecap="round" />
    <path d="M364.331 170.712C351.301 136.028 270.797 122.885 231.496 120.65L229.241 126.524C232.553 126.672 250.02 126.511 288.421 135.071C327.977 143.889 352.578 157.619 359.364 173.426L364.331 170.712Z" fill="#AD61FF" stroke="#271A58" stroke-linecap="round" />
    <path d="M170.746 21.3664L135.907 60.6849L166.787 34.5403L166.787 47.7949L206.581 13.9008L174.39 34.5403L170.746 21.3664Z" fill="#F9EBFF" stroke="#271A58" stroke-linecap="round" />
    <path d="M94.2533 114.718L86.1352 149.985L96.579 127.74L100.945 137.506L115.445 103.488L101.434 125.57L94.2533 114.718Z" fill="#F9EBFF" stroke="#271A58" stroke-linecap="round" />
    <path d="M53.0608 96.4083L15.7947 131.114L45.1104 113.849L45.3953 126.023L103.61 93.5334L53.4645 113.654L53.0608 96.4083Z" fill="#F9EBFF" stroke="#271A58" stroke-linecap="round" />
    <rect opacity="0.8" y="0.879883" width="250" height="150" fill="url(#paint1_linear_6_149)" />
    <path d="M68.1553 66.8799L63.2113 82.5999V66.8799H61.0033V84.8799H64.5073L69.4513 69.1599V84.8799H71.6593V66.8799H68.1553ZM77.5065 84.8799V79.9119H83.2665V84.8799H85.6665V72.8799H83.2665V77.7279H77.5065V72.8799H75.1065V84.8799H77.5065ZM87.7718 82.6719V88.1199H89.9798V84.8799H98.7878V88.1199H100.996V82.6719H99.3158V72.8799H90.0758C90.0278 79.9119 89.5478 81.5439 88.9478 82.6719H87.7718ZM91.9958 79.8159C92.1398 78.7359 92.2358 77.2479 92.2598 75.0879H96.9158V82.6719H91.3718C91.6118 82.0719 91.8038 81.2079 91.9958 79.8159ZM114.184 84.8799V72.8799H111.136L105.64 82.4559V72.8799H103.336V84.8799H106.384L111.88 75.3039V84.8799H114.184ZM122.955 79.3839V77.1759H117.147V79.3839H122.955ZM128.847 77.8719V79.6719H130.743C132.111 79.6719 132.951 80.2959 132.951 81.4239C132.951 82.4559 132.207 83.2239 130.335 83.2239C128.367 83.2239 127.383 82.2639 127.383 80.6319H124.983C124.983 83.4879 126.951 85.1199 130.311 85.1199C133.599 85.1199 135.351 83.7519 135.351 81.4959C135.351 80.1519 134.631 79.2399 133.287 78.7839C134.463 78.2799 135.063 77.2479 135.063 76.0719C135.063 74.1999 133.503 72.6399 130.311 72.6399C126.927 72.6399 125.175 74.6079 125.175 76.9599H127.575C127.575 75.4239 128.559 74.5599 130.311 74.5599C131.967 74.5599 132.759 75.2559 132.759 76.2639C132.759 77.3199 132.063 77.8719 130.743 77.8719H128.847ZM141.344 85.1199C143.072 85.1199 144.608 84.4479 145.4 82.8639V84.8799H147.752V76.4799C147.752 73.6959 145.352 72.6399 142.76 72.6399C140.12 72.6399 137.624 73.8159 137.624 76.9119H140.12C140.12 75.3519 141.2 74.5599 142.76 74.5599C144.224 74.5599 145.352 75.2079 145.352 76.3839C145.352 79.1199 137.264 76.5279 137.264 81.7119C137.264 84.0879 139.208 85.1199 141.344 85.1199ZM139.712 81.5679C139.712 79.5519 143.36 80.0559 145.4 79.0719V79.9359C145.4 82.0239 143.672 83.1039 141.824 83.1039C140.6 83.1039 139.712 82.5999 139.712 81.5679ZM153.383 90.8799V83.0799C154.319 84.3519 155.711 85.1199 157.319 85.1199C160.607 85.1199 163.079 82.5519 163.079 78.8799C163.079 75.2079 160.607 72.6399 157.319 72.6399C155.711 72.6399 154.319 73.4079 153.383 74.6799V72.8799H150.983V90.8799H153.383ZM157.031 82.9119C154.943 82.9119 153.383 81.3039 153.383 78.8799C153.383 76.4559 154.943 74.8479 157.031 74.8479C159.119 74.8479 160.679 76.4559 160.679 78.8799C160.679 81.3039 159.119 82.9119 157.031 82.9119ZM165.202 76.5279C165.202 78.8559 167.05 80.1039 169.066 80.2239L164.362 84.8799H167.17L172.354 79.6239H172.378V84.8799H174.778V72.8799H169.618C167.218 72.8799 165.202 73.9119 165.202 76.5279ZM170.026 78.5199C168.514 78.5199 167.602 77.9199 167.602 76.5519C167.602 75.3279 168.514 74.7039 170.026 74.7039H172.378V78.5199H170.026ZM176.884 82.6719V88.1199H179.092V84.8799H187.9V88.1199H190.108V82.6719H188.428V72.8799H179.188C179.14 79.9119 178.66 81.5439 178.06 82.6719H176.884ZM181.108 79.8159C181.252 78.7359 181.348 77.2479 181.372 75.0879H186.028V82.6719H180.484C180.724 82.0719 180.916 81.2079 181.108 79.8159Z" fill="white" />
  </g>
  <defs>
    <linearGradient id="paint0_linear_6_149" x1="125" y1="0" x2="125" y2="150" gradientUnits="userSpaceOnUse">
      <stop stop-color="#271A58" />
      <stop offset="1" stop-color="#7868CC" />
    </linearGradient>
    <linearGradient id="paint1_linear_6_149" x1="125" y1="0.879883" x2="125" y2="150.88" gradientUnits="userSpaceOnUse">
      <stop stop-color="#271A58" />
      <stop offset="1" stop-color="#7868CC" />
    </linearGradient>
    <clipPath id="clip0_6_149">
      <rect width="250" height="150" fill="white" transform="translate(0 0.879883)" />
    </clipPath>
  </defs>
</svg>
  