<svg viewBox="0 0 250 151" fill="none" xmlns="http://www.w3.org/2000/svg">
  <g clip-path="url(#clip0_6_93)">
    <rect width="250" height="150" transform="translate(0 0.879883)" fill="#271A58" />
    <path d="M311.596 219.543C309.098 159.404 262.925 123.836 222.819 105.567L211.028 89.152L96.4734 62.334L59.2517 107.878C27.9023 123.229 9.96969 142.557 4.92204 150.302L-54.8406 174.808C-72.596 180.634 -78.345 205.323 -79 216.939H-75.269C-77.2056 231.854 -72.6704 264.602 -39.037 258.875C-5.40353 253.147 33.0989 224.75 48.7326 208.677V291.559H259V274.176C289.396 272.04 313.16 257.213 311.596 219.543Z" fill="#F9EBFF" />
    <path d="M83.2949 52.0463L132.423 -2.86133L186.637 17.3678L196.694 58.1729L182.591 102.908C180.094 108.087 176.619 111.693 175.193 112.849C170.662 123.762 162.362 132.963 158.779 136.2C139.451 128.709 129.071 113.659 126.296 107.07C118.436 101.244 112.695 93.3138 110.807 90.0771L83.2949 87.4184V52.0463Z" fill="#E9D4FF" />
    <path d="M132.145 15.6174C145.256 13.3269 145.467 7.37704 143.299 3.25588C146.681 3.38603 154.952 5.72079 157.449 12.3841C160.571 20.7131 160.5 23.0355 167.654 26.1589C174.807 29.2823 179.434 33.8002 182.591 43.0454C191.284 72.4654 186.015 95.2077 182.294 102.901C184.091 105.435 187.176 112.222 185.15 119.095C184.411 122.132 184.263 129.065 189.581 132.502C196.228 136.797 200.789 149.944 192.187 149.424C196.315 150.942 204.751 151.22 205.481 140.182C206.394 126.384 214.213 135.235 221.642 127.946C229.071 120.657 225.903 115.737 224.379 110.504C217.267 94.9316 231.491 100.443 236.293 89.2074C240.135 80.2186 234.692 78.1274 231.491 78.2055C232.896 78.3225 235.239 79.5311 233.365 83.4289C231.491 87.3267 225.464 85.053 222.685 83.4289C214.727 77.1325 215.517 66.6373 217.472 60.5195C219.427 54.4016 217.863 45.1598 209.652 38.7816C201.441 32.4034 196.358 24.3331 195.706 17.5644C195.055 10.7957 186.323 -0.268484 176.678 -2.48132C167.034 -4.69416 160.908 -14.3265 150.612 -17.4505C142.375 -19.9497 130.816 -14.6528 125.95 -14.3057C122.525 -15.0865 113.909 -15.7468 105.48 -12.6234C94.0341 -8.58897 90.7823 -1.30102 89.0914 4.42522C87.4005 10.1515 82.1977 12.1036 76.9949 14.1858C71.7921 16.2681 65.1585 20.6929 68.5404 29.2823C71.9222 37.8717 69.8411 40.865 63.2075 45.2898C56.5739 49.7146 52.2816 56.0916 55.4033 63.5096C58.525 70.9277 57.4843 79.3869 49.0298 83.6816C40.5752 87.9763 40.6002 100.466 51.266 102.028C61.9317 103.589 62.0368 114.916 54.6228 118.169C48.6916 120.772 47.8707 118.162 47.5238 115.603C44.0119 124.713 51.2408 126.628 60.866 127.93C70.4912 129.231 58.7849 140.554 67.3695 147.191C75.9541 153.828 84.2786 140.033 90.1318 144.328C94.8143 147.763 90.1751 149.664 87.2702 150.184C91.4325 160.986 107.951 152.527 109.642 137.04C111.333 121.553 92.7332 117.388 100.667 111.011C108.602 104.634 115.584 95.24 108.684 85.8777C104.338 79.9799 96.1146 62.9629 107.281 55.9185C120.236 47.7456 117.837 35.9195 117.317 31.8851C116.796 27.8507 115.756 18.4805 132.145 15.6174Z" fill="#D9B6FF" />
    <path d="M182.592 43.0451C179.434 33.7999 174.807 29.282 167.654 26.1586C160.5 23.0352 160.571 20.7128 157.449 12.3838C154.952 5.72049 146.681 3.38572 143.299 3.25557C145.467 7.37672 145.256 13.3266 132.145 15.6171C115.756 18.4802 116.796 27.8504 117.317 31.8848C117.837 35.9192 120.237 47.7452 107.281 55.9182C96.1146 62.9626 104.338 79.9796 108.684 85.8774C115.584 95.2396 108.602 104.634 100.667 111.011C92.7332 117.388 111.333 121.553 109.642 137.039C107.951 152.526 91.4325 160.986 87.2703 150.184C90.1752 149.663 94.8143 147.763 90.1318 144.327C84.2787 140.033 75.9542 153.828 67.3696 147.191C58.7849 140.553 70.4912 129.231 60.8661 127.93C51.2409 126.628 44.012 124.712 47.5239 115.603C47.8708 118.162 48.6916 120.772 54.6228 118.169C62.0368 114.915 61.9317 103.589 51.266 102.027C40.6003 100.466 40.5753 87.976 49.0298 83.6813C57.4844 79.3866 58.525 70.9274 55.4033 63.5093C52.2817 56.0912 56.574 49.7143 63.2075 45.2895C69.8411 40.8646 71.9222 37.8714 68.5404 29.282C65.1586 20.6926 71.7922 16.2678 76.995 14.1855C82.1978 12.1033 87.4006 10.1512 89.0915 4.42491C90.7824 -1.30133 94.0341 -8.58927 105.48 -12.6237C113.909 -15.7471 122.866 -14.9662 126.291 -14.1854" stroke="#271A58" />
    <path d="M-24.5298 115.679L-54.8409 174.693C-55.6732 192.725 -49.1767 207.791 -45.8245 213.07C-31.2132 211.868 -14.7679 201.703 -8.37166 196.771L12.5511 124.409C28.0534 126.537 54.1852 98.8369 50.6877 87.9952C47.9193 79.4138 22.1479 108.91 28.0534 87.9952C38.6975 67.9034 46.9807 49.9216 40.8768 48.1786C35.9937 46.7842 23.0803 68.4316 18.3236 77.911C22.8603 65.6489 30.6848 40.1659 24.8475 38.6373C16.7491 36.5167 9.82626 64.0588 6.19691 76.2597C7.32421 64.5481 12.1157 36.5272 4.23846 38.6373C-0.797615 39.9864 -6.46305 68.3621 -7.92858 77.911C-7.92858 67.7199 -2.43814 50.1052 -8.85975 50.1052C-17.1034 50.1052 -30.4956 104.022 -24.5298 115.679Z" fill="#E8D4FF" />
    <path d="M12.4355 124.524L-8.60278 196.656" stroke="#271A58" />
    <path d="M152.074 48.6938C152.252 47.0129 153.532 43.3989 157.232 42.3904C160.931 41.3819 163.812 42.5105 164.79 43.2008" stroke="#271A58" stroke-linecap="round" />
    <path d="M126.644 57.9418C126.815 56.2609 128.049 52.647 131.613 51.6385C135.178 50.6299 137.954 51.7585 138.897 52.4489" stroke="#271A58" stroke-linecap="round" />
    <path d="M159.565 86.3779C158.118 88.1181 156.895 88.6884 153.693 88.7077C153.693 88.7077 156.746 94.9557 158.508 93.8835C160.269 92.8112 159.565 86.3779 159.565 86.3779Z" fill="#D9B6FF" stroke="#271A58" />
    <path d="M162.709 75.9746C153.638 81.953 147.627 82.3966 143.289 82.481C144.724 83.8026 149 86.2019 154.626 85.2259C160.253 84.2499 162.359 78.6517 162.709 75.9746Z" fill="#271A58" stroke="#271A58" />
    <path d="M151.268 71.1878C139.653 68.7972 133.987 77.307 132.655 81.7539C145.611 79.5114 157.571 75.9399 168.951 69.1603C165.65 66.6886 162.31 66.3625 159.272 67.0259C158.647 68.0508 156.172 70.318 151.268 71.1878Z" fill="#D9B6FF" />
    <path d="M151.268 71.1878C139.653 68.7972 133.987 77.307 132.655 81.7539C145.611 79.5114 157.571 75.9399 168.951 69.1603C165.65 66.6886 162.31 66.3625 159.272 67.0259" stroke="#271A58" />
    <path d="M-54.8411 174.692L-24.6135 115.595C-30.5792 103.939 -17.1036 50.1052 -8.85992 50.1052C-2.43832 50.1052 -7.92875 67.7199 -7.92875 77.911C-6.46322 68.3621 -0.79779 39.9864 4.23829 38.6373C12.1155 36.5272 7.32403 64.5481 6.19673 76.2597C9.82609 64.0588 16.749 36.5167 24.8474 38.6373C30.6847 40.1659 22.8601 65.6489 18.3235 77.911C23.0801 68.4316 35.9935 46.7842 40.8766 48.1786C46.9806 49.9216 38.6973 67.9034 28.0532 87.9952C26.2246 92.1687 25.582 99.8046 35.1585 93.101C70.1337 68.6184 42.0136 123.18 12.3547 124.719" stroke="#271A58" />
    <path d="M160.181 54.4448C161.566 54.0003 161.848 51.0211 160.811 47.7906C159.774 44.5601 157.81 42.3015 156.426 42.746C155.041 43.1905 154.759 46.1696 155.796 49.4002C156.833 52.6307 158.796 54.8892 160.181 54.4448Z" fill="#271A58" />
    <path d="M134.688 63.5131C136.073 63.0687 136.355 60.0895 135.318 56.859C134.281 53.6284 132.318 51.3699 130.933 51.8144C129.548 52.2588 129.266 55.238 130.303 58.4685C131.34 61.6991 133.304 63.9576 134.688 63.5131Z" fill="#271A58" />
    <path d="M147.913 57.7385C151.852 57.5311 159.858 58.3609 160.369 63.3396C160.88 68.3184 154.478 70.6004 151.213 71.119" stroke="#271A58" stroke-linecap="round" />
    <path d="M4.92163 150.302C9.32466 143.197 29.2084 122.044 59.3669 107.763" stroke="#271A58" />
    <path d="M182.562 43.1455C189.575 63.5364 191.912 106.896 169.473 116.271C141.425 127.99 114.896 98.3415 110.923 89.9039" stroke="#271A58" />
    <path opacity="0.3" d="M126.619 107.37C137.742 116.081 153.357 123.005 169.473 116.272C171.62 115.375 173.54 114.167 175.251 112.698C154.897 134.737 134.349 118.329 126.619 107.37Z" fill="#D9B6FF" />
    <path opacity="0.3" d="M132.144 15.6174C145.255 13.3269 145.467 7.37702 143.299 3.25586C145.732 7.80869 146.908 17.4983 132.144 19.8339C113.69 22.7534 128.45 40.1873 117.316 53.1167C106.182 66.0461 99.2576 62.7502 108.684 85.8777C104.338 79.9799 96.1144 62.9629 107.281 55.9185C120.236 47.7455 117.837 35.9195 117.316 31.8851C116.796 27.8507 115.755 18.4805 132.144 15.6174Z" fill="#D9B6FF" />
    <path d="M125.719 -14.3265C130.585 -14.6736 142.375 -19.9497 150.612 -17.4505C160.908 -14.3265 167.034 -4.69413 176.678 -2.4813C186.323 -0.268459 195.055 10.7957 195.707 17.5644C196.358 24.3331 201.441 32.4034 209.652 38.7816C217.863 45.1598 219.427 54.4017 217.472 60.5195C215.517 66.6373 214.727 77.1325 222.685 83.4289C225.464 85.053 231.491 87.3267 233.365 83.4289C235.239 79.5311 232.897 78.3225 231.491 78.2055C234.693 78.1275 240.136 80.2186 236.294 89.2074C231.491 100.443 217.268 94.9316 224.379 110.504C225.904 115.737 229.071 120.657 221.642 127.946C214.214 135.235 206.394 126.384 205.481 140.182C204.752 151.22 196.315 150.942 192.188 149.424C200.79 149.944 196.228 136.797 189.581 132.502C184.264 129.065 184.411 122.132 185.15 119.095C187.176 112.222 184.091 105.435 182.295 102.901" stroke="#271A58" />
    <path d="M143.521 3.38074C141.975 -0.130628 133.905 -11.2649 125.719 -14.4209" stroke="#271A58" />
    <path d="M150.225 41.065C150.974 37.7962 154.658 31.5923 163.403 32.9276" stroke="#271A58" stroke-linecap="round" />
    <path d="M137.948 47.2024C134.771 44.5054 127.04 41.1103 121.536 49.1048" stroke="#271A58" stroke-linecap="round" />
    <path d="M175.309 112.733C172.226 120.159 167.333 127.794 158.663 136.315C147.104 131.078 133.14 122.051 126.297 107.069" stroke="#271A58" />
    <path d="M103.596 108.338C112.764 126.803 136.455 147.735 149.912 152.048L158.703 136.232L172.796 149.739C176.469 144.921 182.614 136.908 186.609 129.525" stroke="#271A58" />
    <path d="M158.779 136.546L158.779 158.278" stroke="#271A58" />
    <path d="M6.91771 69.4658C1.72495 71.2331 -4.10068 70.3124 -6.43077 69.6327L-7.26294 74.6457C-2.51955 76.1751 4.55989 75.6967 6.50163 74.8187L6.91771 69.4658Z" fill="#D9B6FF" stroke="#271A58" />
    <path d="M127.536 2.23434C119.112 2.15663 102.947 6.85036 105.683 26.2469C109.103 50.4927 78.9275 38.6281 89.0012 67.589C101.928 104.751 71.5656 96.8007 86.5793 115.762C100.094 132.83 88.0248 135.801 84.9109 137.2" stroke="#271A58" stroke-linecap="round" />
    <path d="M207.866 122.102C210.119 119.933 213.272 114.06 207.866 107.921C201.11 100.247 195.521 101.415 196.772 88.235C198.023 75.0553 199.775 70.2172 193.686 61.542" stroke="#271A58" stroke-linecap="round" />
    <path d="M222.631 105.502C244.18 114.288 290.881 142.572 304.962 186.081C322.32 239.718 304.795 266.578 268.426 273.001" stroke="#271A58" />
    <rect opacity="0.8" y="0.879883" width="250" height="150" fill="url(#paint0_linear_6_93)" />
    <path d="M28.2679 53.6959C28.2679 55.4959 27.6199 56.2399 26.0599 56.2399H25.4839V58.2559H28.2679V70.8799H30.6679V52.8799H28.2679V53.6959ZM38.9336 71.1199C42.1016 71.1199 43.9976 69.1759 43.9976 65.2159V58.5439C43.9976 54.6079 42.1016 52.6399 38.9336 52.6399C35.7896 52.6399 33.8696 54.6079 33.8696 58.5439V65.2159C33.8696 69.1759 35.7896 71.1199 38.9336 71.1199ZM38.9336 68.9119C37.2536 68.9119 36.2696 67.9279 36.2696 65.2159V58.5439C36.2696 55.8559 37.2776 54.8479 38.9336 54.8479C40.5896 54.8479 41.5976 55.8559 41.5976 58.5439V65.2159C41.5976 67.9279 40.5896 68.9119 38.9336 68.9119ZM52.0289 71.1199C55.1969 71.1199 57.0929 69.1759 57.0929 65.2159V58.5439C57.0929 54.6079 55.1969 52.6399 52.0289 52.6399C48.8849 52.6399 46.9649 54.6079 46.9649 58.5439V65.2159C46.9649 69.1759 48.8849 71.1199 52.0289 71.1199ZM52.0289 68.9119C50.3489 68.9119 49.3649 67.9279 49.3649 65.2159V58.5439C49.3649 55.8559 50.3729 54.8479 52.0289 54.8479C53.6849 54.8479 54.6929 55.8559 54.6929 58.5439V65.2159C54.6929 67.9279 53.6849 68.9119 52.0289 68.9119ZM70.6755 70.8799V61.0879H74.5635V58.8799H64.3875V61.0879H68.2755V70.8799H70.6755ZM80.0093 71.1199C81.7373 71.1199 83.2733 70.4479 84.0653 68.8639V70.8799H86.4173V62.4799C86.4173 59.6959 84.0173 58.6399 81.4253 58.6399C78.7853 58.6399 76.2893 59.8159 76.2893 62.9119H78.7853C78.7853 61.3519 79.8653 60.5599 81.4253 60.5599C82.8893 60.5599 84.0173 61.2079 84.0173 62.3839C84.0173 65.1199 75.9293 62.5279 75.9293 67.7119C75.9293 70.0879 77.8733 71.1199 80.0093 71.1199ZM78.3773 67.5679C78.3773 65.5519 82.0253 66.0559 84.0653 65.0719V65.9359C84.0653 68.0239 82.3373 69.1039 80.4893 69.1039C79.2653 69.1039 78.3773 68.5999 78.3773 67.5679ZM92.0487 70.8799V65.9119H97.8087V70.8799H100.209V58.8799H97.8087V63.7279H92.0487V58.8799H89.6487V70.8799H92.0487ZM106.058 58.8799H103.658V70.8799H113.354V74.1199H115.562V68.6719H113.882V58.8799H111.482V68.6719H106.058V58.8799ZM128.774 65.6959C128.798 65.4319 128.822 65.1679 128.822 64.8799C128.822 61.2079 126.326 58.6399 122.918 58.6399C119.51 58.6399 117.014 61.2079 117.014 64.8799C117.014 68.5519 119.51 71.1199 122.918 71.1199C125.678 71.1199 127.766 69.7519 128.51 67.2799H125.918C125.438 68.3599 124.478 69.0079 123.014 69.0079C120.998 69.0079 119.654 67.7839 119.366 65.6959H128.774ZM122.918 60.7519C124.838 60.7519 126.158 61.9519 126.446 63.9679H119.39C119.678 61.9519 120.974 60.7519 122.918 60.7519ZM131.396 70.8799H137.54C140.036 70.8799 141.572 69.7279 141.572 67.4239C141.572 65.9119 140.732 64.9519 139.412 64.5199C140.444 64.0879 141.068 63.2719 141.068 61.9999C141.068 59.9119 139.556 58.8799 137.348 58.8799H131.396V70.8799ZM136.652 60.7039C138.14 60.7039 138.764 61.1839 138.764 62.2639C138.764 63.2719 138.14 63.8239 136.652 63.8239H133.7V60.7039H136.652ZM137.132 65.6479C138.476 65.6479 139.172 66.2479 139.172 67.3519C139.172 68.4559 138.476 69.0559 137.132 69.0559H133.7V65.6479H137.132ZM147.947 71.1199C149.675 71.1199 151.211 70.4479 152.003 68.8639V70.8799H154.355V62.4799C154.355 59.6959 151.955 58.6399 149.363 58.6399C146.723 58.6399 144.227 59.8159 144.227 62.9119H146.723C146.723 61.3519 147.803 60.5599 149.363 60.5599C150.827 60.5599 151.955 61.2079 151.955 62.3839C151.955 65.1199 143.867 62.5279 143.867 67.7119C143.867 70.0879 145.811 71.1199 147.947 71.1199ZM146.315 67.5679C146.315 65.5519 149.963 66.0559 152.003 65.0719V65.9359C152.003 68.0239 150.275 69.1039 148.427 69.1039C147.203 69.1039 146.315 68.5999 146.315 67.5679ZM167.378 70.8799V58.8799H158.498C158.474 64.2799 158.306 66.3439 158.018 67.3759C157.778 68.2879 157.25 68.6719 156.602 68.6719H156.41V70.8799H156.842C158.762 70.8799 159.818 70.0879 160.322 67.0879C160.514 65.7919 160.634 63.8959 160.682 61.0879H164.978V70.8799H167.378ZM180.494 66.8479C180.494 64.4719 178.79 62.8399 175.886 62.8399H173.222V58.8799H170.822V70.8799H175.91C178.91 70.8799 180.494 69.2239 180.494 66.8479ZM175.694 64.8559C177.326 64.8559 178.094 65.5039 178.094 66.8239C178.094 68.1199 177.326 68.8639 175.694 68.8639H173.222V64.8559H175.694ZM185.356 70.8799V65.9119H191.116V70.8799H193.516V58.8799H191.116V63.7279H185.356V58.8799H182.956V70.8799H185.356ZM206.638 66.8479C206.638 64.4719 204.934 62.8399 202.03 62.8399H199.366V58.8799H196.966V70.8799H202.054C205.054 70.8799 206.638 69.2239 206.638 66.8479ZM210.862 70.8799V58.8799H208.462V70.8799H210.862ZM201.838 64.8559C203.47 64.8559 204.238 65.5039 204.238 66.8239C204.238 68.1199 203.47 68.8639 201.838 68.8639H199.366V64.8559H201.838ZM215.431 70.8799L218.647 66.4399L222.103 70.8799H224.911L220.207 64.7359L224.671 58.8799H221.863L218.839 62.9599L215.671 58.8799H212.863L217.327 64.6639L212.623 70.8799H215.431ZM95.6313 98.8799L98.8473 94.4399L102.303 98.8799H105.111L100.407 92.7359L104.871 86.8799H102.063L99.0393 90.9599L95.8713 86.8799H93.0633L97.5273 92.6639L92.8233 98.8799H95.6313ZM117.72 98.8799V86.8799H114.672L109.176 96.4559V86.8799H106.872V98.8799H109.92L115.416 89.3039V98.8799H117.72ZM126.107 98.8799V89.0879H129.995V86.8799H119.819V89.0879H123.707V98.8799H126.107ZM137.122 99.1199C140.602 99.1199 143.194 96.5519 143.194 92.8799C143.194 89.2079 140.602 86.6399 137.122 86.6399C133.642 86.6399 131.05 89.2079 131.05 92.8799C131.05 96.5519 133.642 99.1199 137.122 99.1199ZM137.122 96.9119C135.034 96.9119 133.45 95.3039 133.45 92.8799C133.45 90.4559 135.034 88.8479 137.122 88.8479C139.21 88.8479 140.794 90.4559 140.794 92.8799C140.794 95.3039 139.21 96.9119 137.122 96.9119ZM145.76 98.8799H151.904C154.4 98.8799 155.936 97.7279 155.936 95.4239C155.936 93.9119 155.096 92.9519 153.776 92.5199C154.808 92.0879 155.432 91.2719 155.432 89.9999C155.432 87.9119 153.92 86.8799 151.712 86.8799H145.76V98.8799ZM151.016 88.7039C152.504 88.7039 153.128 89.1839 153.128 90.2639C153.128 91.2719 152.504 91.8239 151.016 91.8239H148.064V88.7039H151.016ZM151.496 93.6479C152.84 93.6479 153.536 94.2479 153.536 95.3519C153.536 96.4559 152.84 97.0559 151.496 97.0559H148.064V93.6479H151.496Z" fill="white" />
  </g>
  <defs>
    <linearGradient id="paint0_linear_6_93" x1="125" y1="0.879883" x2="125" y2="150.88" gradientUnits="userSpaceOnUse">
      <stop stop-color="#271A58" />
      <stop offset="1" stop-color="#7868CC" />
    </linearGradient>
    <clipPath id="clip0_6_93">
      <rect width="250" height="150" fill="white" transform="translate(0 0.879883)" />
    </clipPath>
  </defs>
</svg>
  