<svg width="140" height="21" viewBox="0 0 140 21" fill="currentColor" xmlns="http://www.w3.org/2000/svg">
    <path d="M3.87291 20.4307C1.61921 21.7325 0.000244141 20.6477 0.000244141 18.7181C0.000244141 16.664 0.000244141 10.5005 0.000244141 10.5005C0.000244141 10.5005 0.000244141 4.33711 0.000244141 2.28297C0.000244141 0.353385 1.61821 -0.731443 3.87291 0.57035C7.38302 2.59737 17.9123 8.68044 17.9123 8.68044C19.3124 9.48904 19.3124 11.511 17.9123 12.3196C17.9123 12.3206 7.38302 18.4037 3.87291 20.4307Z" fill="#00C1FF" />
    <path d="M15.462 20.4293C13.2083 21.7311 11.5894 20.6462 11.5894 18.7166C11.5894 16.6625 11.5894 10.4991 11.5894 10.4991C11.5894 10.4991 11.5894 4.33565 11.5894 2.28151C11.5894 0.35192 13.2073 -0.732908 15.462 0.568885C18.8948 2.55171 29.1931 8.50118 29.1931 8.50118C30.7308 9.38914 30.7308 11.609 29.1931 12.497C29.1921 12.497 18.8948 18.4464 15.462 20.4293Z" fill="#BCEC30" />
    <mask id="mask0_6_2006" style="mask-type:alpha" maskUnits="userSpaceOnUse" x="11" y="0" width="20" height="21">
        <path d="M15.462 20.4293C13.2083 21.7311 11.5894 20.6462 11.5894 18.7166C11.5894 16.6625 11.5894 10.4991 11.5894 10.4991C11.5894 10.4991 11.5894 4.33565 11.5894 2.28151C11.5894 0.35192 13.2073 -0.732908 15.462 0.568885C18.8948 2.55171 29.1931 8.50118 29.1931 8.50118C30.7308 9.38914 30.7308 11.609 29.1931 12.497C29.1921 12.497 18.8948 18.4464 15.462 20.4293Z" fill="#6FE4FF" />
    </mask>
    <g mask="url(#mask0_6_2006)">
        <g filter="url(#filter0_f_6_2006)">
            <path d="M3.8734 20.4307C1.6197 21.7325 0.000732422 20.6477 0.000732422 18.7181C0.000732422 16.664 0.000732422 10.5005 0.000732422 10.5005C0.000732422 10.5005 0.000732422 4.33711 0.000732422 2.28297C0.000732422 0.353385 1.6187 -0.731443 3.8734 0.57035C7.38351 2.59737 17.9128 8.68044 17.9128 8.68044C19.3129 9.48904 19.3129 11.511 17.9128 12.3196C17.9128 12.3206 7.38351 18.4037 3.8734 20.4307Z" fill="#99D100" />
        </g>
    </g>
    <path fill="currentColor" d="M37.6903 14.1675L38.0829 13.2735C38.3506 12.6656 38.8324 12.5047 39.4391 12.9517C40.5991 13.8099 42.5086 14.4357 45.0606 14.4357C47.2378 14.4357 48.1658 13.8814 48.1658 13.2199C48.1658 12.4689 47.3984 12.2722 46.1313 12.1113L43.2403 11.7358C39.7604 11.271 38.0115 10.0194 38.0115 7.83801C38.0115 5.49574 39.921 3.63623 44.3468 3.63623C46.8095 3.63623 48.3978 4.01171 49.4328 4.40507C50.5749 4.85206 50.7356 5.22754 50.7356 6.1573V7.37313C50.7356 8.12409 50.4679 8.37441 49.7362 8.37441H48.9153C48.1658 8.37441 47.9159 8.10621 47.9159 7.37313V6.97977C47.4341 6.81885 46.2384 6.58641 44.8464 6.58641C42.4016 6.58641 41.2237 7.03341 41.2237 7.78437C41.2237 8.33865 41.9376 8.66048 43.2403 8.83928L46.0778 9.21476C49.5042 9.64388 51.3245 10.6809 51.3245 13.1841C51.3245 15.723 48.9153 17.3501 44.6144 17.3501C41.4557 17.3501 38.9216 16.3488 37.9044 15.4191C37.5475 15.0615 37.494 14.6145 37.6903 14.1675Z"/>
    <path fill="currentColor" d="M69.0261 17.1352H67.5628C66.849 17.1352 66.617 17.0279 66.26 16.4915L63.5118 12.4328C63.1192 11.8785 62.8158 11.7354 61.9949 11.7354H59.2466V16.1339C59.2466 16.8849 58.9789 17.1352 58.2473 17.1352H57.1944C56.4448 17.1352 56.195 16.867 56.195 16.1339V2.93854H55.2135C54.464 2.93854 54.2141 2.67034 54.2141 1.93726V1.04327C54.2141 0.292311 54.4818 0.0419922 55.2135 0.0419922H58.2651C59.0146 0.0419922 59.2645 0.310191 59.2645 1.04327V8.76738H61.7272C62.5481 8.76738 62.8336 8.64223 63.2441 8.07007L65.5462 4.51197C65.921 3.95769 66.153 3.85041 66.8668 3.85041H68.3302C69.1332 3.85041 69.276 4.49409 68.8298 5.15564L66.26 9.05346C65.9924 9.42894 65.6711 9.8223 65.3678 10.1441C65.689 10.4123 66.1351 10.8593 66.3136 11.1275L69.5258 15.8657C69.972 16.4915 69.8114 17.1352 69.0261 17.1352Z"/>
    <path fill="currentColor" d="M74.2481 19.5667V18.6906C74.2481 17.9396 74.5158 17.6893 75.2475 17.6893H76.5145C77.2819 17.6893 77.6567 17.5284 77.9422 16.9205L78.1028 16.5808L72.0352 5.084C71.6605 4.38668 71.9638 3.86816 72.7491 3.86816H74.1232C74.837 3.86816 75.1582 3.99332 75.4259 4.51184L77.96 9.73277C78.549 10.9307 79.2092 12.3075 79.7268 13.5054C80.2622 12.3432 80.8689 11.0022 81.44 9.84005L84.0276 4.51184C84.2596 4.0112 84.6165 3.86816 85.3304 3.86816H86.7045C87.5076 3.86816 87.7931 4.40456 87.4183 5.084L80.512 18.2257C79.7089 19.7455 78.7988 20.5859 76.7287 20.5859H75.2118C74.498 20.5859 74.2481 20.3177 74.2481 19.5667Z"/>
    <path fill="currentColor" d="M106.08 10.5021C106.08 14.7218 102.957 17.3501 98.7456 17.3501C96.9253 17.3501 95.5333 16.9031 94.5518 16.3488V19.9606C94.5518 20.7115 94.2841 20.9619 93.5524 20.9619H92.4995C91.75 20.9619 91.5002 20.6937 91.5002 19.9606V6.76521H90.5187C89.7691 6.76521 89.5193 6.49701 89.5193 5.76394V4.86994C89.5193 4.11899 89.787 3.86867 90.5187 3.86867H93.0884C93.838 3.86867 94.0878 4.13687 94.0878 4.86994V4.94146C95.0872 4.27991 96.6041 3.63623 98.7456 3.63623C102.957 3.65411 106.08 6.28246 106.08 10.5021ZM102.904 10.5021C102.904 8.03469 100.923 6.65793 98.46 6.65793C96.6933 6.65793 95.2478 7.40889 94.5696 8.01681V13.0053C95.2656 13.6132 96.6933 14.3642 98.46 14.3642C100.923 14.3463 102.904 12.9695 102.904 10.5021Z"/>
    <path fill="currentColor" d="M122.705 9.46527C122.705 10.2162 122.438 10.4665 121.706 10.4665H120.653C119.904 10.4665 119.654 10.252 119.654 9.46527C119.654 7.49848 118.904 6.62236 117.12 6.62236C115.424 6.62236 114.015 7.67728 113.229 8.96463V16.1345C113.229 16.8854 112.962 17.1357 112.23 17.1357H111.177C110.428 17.1357 110.178 16.8675 110.178 16.1345V6.7654H109.196C108.447 6.7654 108.197 6.4972 108.197 5.76413V4.87013C108.197 4.11917 108.464 3.86886 109.196 3.86886H111.766C112.515 3.86886 112.765 4.13705 112.765 4.87013V5.72837C113.711 4.67345 115.157 3.6543 117.619 3.6543C121.224 3.6543 122.705 5.79989 122.705 9.46527Z"/>
    <path fill="currentColor" d="M124.6 10.5023C124.6 6.56872 127.919 3.6543 132.327 3.6543C136.699 3.6543 140.001 6.56872 140.001 10.5023C140.001 14.4538 136.681 17.3682 132.327 17.3682C127.919 17.3682 124.6 14.4538 124.6 10.5023ZM136.967 10.5023C136.967 8.21367 134.95 6.55084 132.327 6.55084C129.65 6.55084 127.634 8.23155 127.634 10.5023C127.634 12.8088 129.65 14.4895 132.327 14.4895C134.968 14.4895 136.967 12.8088 136.967 10.5023Z"/>
    <defs>
        <filter id="filter0_f_6_2006" x="-8.92872" y="-8.92799" width="36.8211" height="38.857" filterUnits="userSpaceOnUse" color-interpolation-filters="sRGB">
            <feFlood flood-opacity="0" result="BackgroundImageFix" />
            <feBlend mode="normal" in="SourceGraphic" in2="BackgroundImageFix" result="shape" />
            <feGaussianBlur stdDeviation="4.46473" result="effect1_foregroundBlur_6_2006" />
        </filter>
    </defs>
</svg>