<svg viewBox="0 0 16 15" xmlns="http://www.w3.org/2000/svg">
  <path
    d="M8.36529 14C14.2458 10.5 17.3111 5.20921 13.9565 2.76734C11.7563 1.16576 9.29718 2.44175 8.36529 3.25572H8.34378H8.34372H8.32221C7.39032 2.44175 4.93121 1.16576 2.73102 2.76734C-0.623552 5.20921 2.44172 10.5 8.32221 14H8.34372H8.34378H8.36529Z" />
  <path
    d="M8.34372 3.25572H8.36529C9.29718 2.44175 11.7563 1.16576 13.9565 2.76734C17.3111 5.20921 14.2458 10.5 8.36529 14H8.34372M8.34378 3.25572H8.32221C7.39032 2.44175 4.93121 1.16576 2.73102 2.76734C-0.623552 5.20921 2.44172 10.5 8.32221 14H8.34378"
    stroke="currentColor" />
  <path d="M1 1L15 13.5" stroke="currentColor" />
</svg>
  