<svg viewBox="0 0 20 18" xmlns="http://www.w3.org/2000/svg">
  <path
    d="M19.2437 15L14.2437 12.1132V17.8868L19.2437 15ZM9.90682 12.0833L9.45229 12.2916L9.90682 12.0833ZM7.08049 5.91673L6.62595 6.12505L7.08049 5.91673ZM0.243652 3.5H2.53516V2.5H0.243652V3.5ZM6.62595 6.12505L9.45229 12.2916L10.3614 11.8749L7.53502 5.7084L6.62595 6.12505ZM14.4521 15.5H14.7437V14.5H14.4521V15.5ZM9.45229 12.2916C10.3483 14.2466 12.3016 15.5 14.4521 15.5V14.5C12.6926 14.5 11.0945 13.4745 10.3614 11.8749L9.45229 12.2916ZM2.53516 3.5C4.2947 3.5 5.89283 4.52552 6.62595 6.12505L7.53502 5.7084C6.63898 3.75341 4.68571 2.5 2.53516 2.5V3.5Z"
    fill="currentColor" />
  <path
    d="M19.2437 3L14.2437 5.88675V0.113249L19.2437 3ZM9.90682 5.91673L9.45229 5.7084L9.90682 5.91673ZM7.08049 12.0833L6.62595 11.8749L7.08049 12.0833ZM0.243652 14.5H2.53516V15.5H0.243652V14.5ZM6.62595 11.8749L9.45229 5.7084L10.3614 6.12505L7.53502 12.2916L6.62595 11.8749ZM14.4521 2.5H14.7437V3.5H14.4521V2.5ZM9.45229 5.7084C10.3483 3.75341 12.3016 2.5 14.4521 2.5V3.5C12.6926 3.5 11.0945 4.52552 10.3614 6.12505L9.45229 5.7084ZM2.53516 14.5C4.2947 14.5 5.89283 13.4745 6.62595 11.8749L7.53502 12.2916C6.63898 14.2466 4.68571 15.5 2.53516 15.5V14.5Z"
    fill="currentColor" />
</svg>
  