<svg viewBox="0 0 250 151" fill="none" xmlns="http://www.w3.org/2000/svg">
  <g clip-path="url(#clip0_6_76)">
    <rect x="51.4846" y="127.055" width="20.0684" height="73.2932" rx="10" transform="rotate(-32.698 51.4846 127.055)" fill="#9A48F1" stroke="#271A58" stroke-linecap="round" />
    <path d="M115.926 26.0033C94.0427 62.9756 77.6857 83.1608 47.1524 109.249C40.558 114.884 38.7647 124.411 43.1044 131.921C47.301 139.184 56.0248 142.452 64.0398 139.98C99.1009 129.167 125.412 125.137 171.636 123.831L115.926 26.0033Z" fill="#9A48F1" stroke="#271A58" stroke-linecap="round" />
    <path d="M42.7291 131.272L43.4341 132.492C47.4959 139.521 55.7601 142.961 63.6098 140.891L107.661 129.272C107.661 129.272 90.9361 121.061 84.2259 108.406C77.4505 95.6273 75.9926 82.7185 80.2245 77.1361L46.0204 109.118C39.9032 114.838 38.5389 124.021 42.7291 131.272Z" fill="#D9B6FF" stroke="#271A58" stroke-linecap="round" />
    <path d="M172.132 59.125C180.582 75.0599 185.196 91.0676 185.845 104.053C186.496 117.084 183.154 126.875 175.948 130.696C168.742 134.517 158.762 131.788 148.342 123.938C137.957 116.115 127.296 103.313 118.847 87.3783C110.398 71.4433 105.783 55.4356 105.135 42.4498C104.484 29.4197 107.825 19.6284 115.031 15.8074C122.238 11.9865 132.217 14.7148 142.638 22.5648C153.022 30.3881 163.683 43.1901 172.132 59.125Z" fill="#AD61FF" stroke="#271A58" />
    <path d="M165.057 62.877C172.376 76.6815 176.758 90.3432 177.94 101.259C178.531 106.719 178.319 111.466 177.293 115.191C176.267 118.915 174.443 121.573 171.841 122.952C169.24 124.331 166.017 124.35 162.358 123.109C158.699 121.868 154.651 119.381 150.464 115.828C142.091 108.725 133.241 97.4317 125.922 83.6272C118.602 69.8226 114.22 56.1609 113.038 45.2447C112.447 39.785 112.66 35.0386 113.686 31.3132C114.712 27.5892 116.535 24.9316 119.137 23.5522C121.739 22.1727 124.962 22.1542 128.62 23.3947C132.279 24.6357 136.327 27.1232 140.515 30.6759C148.888 37.7795 157.737 49.0725 165.057 62.877Z" fill="#D9B6FF" stroke="#271A58" />
    <path d="M137.836 91.3103L137.836 91.3102L137.826 91.3158L132.192 94.706C130.661 92.2525 128.191 88.116 125.848 83.8264C123.466 79.4661 121.237 74.9884 120.243 71.9596L126.303 68.8283C127.714 68.2188 129.791 67.7197 131.411 67.6649C138.359 67.43 144.182 72.8722 144.417 79.8205C144.58 84.6358 141.767 89.0591 137.836 91.3103Z" fill="#E9D4FF" stroke="#271A58" />
    <rect x="80.6293" y="147.303" width="7.72538" height="16.4508" rx="3.86269" transform="rotate(-32.698 80.6293 147.303)" fill="#D9B6FF" stroke="#271A58" />
    <path d="M210.762 26.2944L160.255 73.7236L197.657 52.1375L195.157 71.2622L269.014 31.2081L207.22 53.3876L210.762 26.2944Z" fill="#F9EBFF" stroke="#271A58" stroke-linecap="round" />
    <path d="M189.235 -11.2282L171.594 35.3706L189.983 6.969L194.12 21.1051L220.236 -22.6024L197.01 4.91261L189.235 -11.2282Z" fill="#F9EBFF" stroke="#271A58" stroke-linecap="round" />
    <path d="M30.0722 65.9127C34.9821 79.2876 54.6614 74.1183 65.455 69.4438C73.7725 45.604 67.1353 29.3578 54.9381 32.3266C45.1804 34.7016 44.9437 44.9256 46.045 49.7407C39.7201 49.2798 25.4806 53.4049 30.0722 65.9127Z" fill="#AD61FF" stroke="#271A58" stroke-linecap="round" />
    <path d="M35.7241 57.762C34.9143 59.9452 34.545 65.0293 39.5455 67.9008" stroke="#271A58" stroke-linecap="round" />
    <rect opacity="0.8" y="0.879883" width="250" height="150" fill="url(#paint0_linear_6_76)" />
    <path d="M52.6166 84.8799V69.0879H58.2806V84.8799H60.6806V66.8799H50.2166V84.8799H52.6166ZM73.9243 84.8799V72.8799H65.0443C65.0203 78.2799 64.8523 80.3439 64.5643 81.3759C64.3243 82.2879 63.7963 82.6719 63.1483 82.6719H62.9563V84.8799H63.3883C65.3083 84.8799 66.3643 84.0879 66.8683 81.0879C67.0603 79.7919 67.1803 77.8959 67.2283 75.0879H71.5243V84.8799H73.9243ZM88.2402 79.6959C88.2642 79.4319 88.2882 79.1679 88.2882 78.8799C88.2882 75.2079 85.7922 72.6399 82.3842 72.6399C78.9762 72.6399 76.4802 75.2079 76.4802 78.8799C76.4802 82.5519 78.9762 85.1199 82.3842 85.1199C85.1442 85.1199 87.2322 83.7519 87.9762 81.2799H85.3842C84.9042 82.3599 83.9442 83.0079 82.4802 83.0079C80.4642 83.0079 79.1202 81.7839 78.8322 79.6959H88.2402ZM82.3842 74.7519C84.3042 74.7519 85.6242 75.9519 85.9122 77.9679H78.8562C79.1442 75.9519 80.4402 74.7519 82.3842 74.7519ZM97.9419 66.8799C97.9419 68.2239 97.1979 68.7759 96.2379 68.7759C95.3499 68.7759 94.5579 68.2239 94.5579 66.8799H92.6379C92.6379 69.1359 94.1019 70.4799 96.2379 70.4799C98.3979 70.4799 99.8619 69.1359 99.8619 66.8799H97.9419ZM101.71 84.8799V72.8799H98.6619L93.1659 82.4559V72.8799H90.8619V84.8799H93.9099L99.4059 75.3039V84.8799H101.71ZM114.945 84.8799V72.8799H106.065C106.041 78.2799 105.873 80.3439 105.585 81.3759C105.345 82.2879 104.817 82.6719 104.169 82.6719H103.977V84.8799H104.409C106.329 84.8799 107.385 84.0879 107.889 81.0879C108.081 79.7919 108.201 77.8959 108.249 75.0879H112.545V84.8799H114.945ZM129.237 84.8799V72.8799H126.189L120.693 82.4559V72.8799H118.389V84.8799H121.437L126.933 75.3039V84.8799H129.237ZM141.199 77.6559H143.695C143.407 74.6559 140.935 72.6399 137.767 72.6399C134.335 72.6399 131.791 75.2079 131.791 78.8799C131.791 82.5519 134.335 85.1199 137.767 85.1199C141.031 85.1199 143.551 83.0079 143.743 79.8399H141.247C141.007 81.8319 139.519 82.9119 137.767 82.9119C135.727 82.9119 134.191 81.3039 134.191 78.8799C134.191 76.4559 135.727 74.8479 137.767 74.8479C139.495 74.8479 140.959 75.8319 141.199 77.6559ZM150.812 84.8799V75.0879H154.7V72.8799H144.524V75.0879H148.412V84.8799H150.812ZM160.895 82.6719V88.1199H163.103V84.8799H171.911V88.1199H174.119V82.6719H172.439V72.8799H163.199C163.151 79.9119 162.671 81.5439 162.071 82.6719H160.895ZM165.119 79.8159C165.263 78.7359 165.359 77.2479 165.383 75.0879H170.039V82.6719H164.495C164.735 82.0719 164.927 81.2079 165.119 79.8159ZM178.859 84.8799V79.9119H184.619V84.8799H187.019V72.8799H184.619V77.7279H178.859V72.8799H176.459V84.8799H178.859ZM190.209 76.5279C190.209 78.8559 192.057 80.1039 194.073 80.2239L189.369 84.8799H192.177L197.361 79.6239H197.385V84.8799H199.785V72.8799H194.625C192.225 72.8799 190.209 73.9119 190.209 76.5279ZM195.033 78.5199C193.521 78.5199 192.609 77.9199 192.609 76.5519C192.609 75.3279 193.521 74.7039 195.033 74.7039H197.385V78.5199H195.033Z" fill="white" />
  </g>
  <defs>
    <linearGradient id="paint0_linear_6_76" x1="125" y1="0.879883" x2="125" y2="150.88" gradientUnits="userSpaceOnUse">
      <stop stop-color="#271A58" />
      <stop offset="1" stop-color="#7868CC" />
    </linearGradient>
    <clipPath id="clip0_6_76">
      <rect width="250" height="150" fill="white" transform="translate(0 0.879883)" />
    </clipPath>
  </defs>
</svg>
  