<svg width="114" height="17" viewBox="0 0 114 17" fill="none" xmlns="http://www.w3.org/2000/svg">
  <path d="M3.13502 16.5394C1.31059 17.5933 0 16.7151 0 15.153C0 13.4902 0 8.50072 0 8.50072C0 8.50072 0 3.51127 0 1.8484C0 0.286352 1.30978 -0.591842 3.13502 0.461991C5.97654 2.10291 14.5003 7.0273 14.5003 7.0273C15.6336 7.68188 15.6336 9.31874 14.5003 9.97332C14.5003 9.97413 5.97654 14.8985 3.13502 16.5394Z" fill="#00C1FF"/>
  <path d="M12.5169 16.538C10.6924 17.5918 9.38184 16.7136 9.38184 15.1516C9.38184 13.4887 9.38184 8.49925 9.38184 8.49925C9.38184 8.49925 9.38184 3.50981 9.38184 1.84693C9.38184 0.284888 10.6916 -0.593306 12.5169 0.460526C15.2958 2.06567 23.6325 6.88191 23.6325 6.88191C24.8773 7.60073 24.8773 9.39777 23.6325 10.1166C23.6317 10.1166 15.2958 14.9328 12.5169 16.538Z" fill="#BCEC30"/>
  <mask id="mask0_6_1663" style="mask-type:alpha" maskUnits="userSpaceOnUse" x="9" y="0" width="16" height="17">
  <path d="M12.5169 16.538C10.6924 17.5918 9.38184 16.7136 9.38184 15.1516C9.38184 13.4887 9.38184 8.49925 9.38184 8.49925C9.38184 8.49925 9.38184 3.50981 9.38184 1.84693C9.38184 0.284888 10.6916 -0.593306 12.5169 0.460526C15.2958 2.06567 23.6325 6.88191 23.6325 6.88191C24.8773 7.60073 24.8773 9.39777 23.6325 10.1166C23.6317 10.1166 15.2958 14.9328 12.5169 16.538Z" fill="#6FE4FF"/>
  </mask>
  <g mask="url(#mask0_6_1663)">
  <g filter="url(#filter0_f_6_1663)">
  <path d="M3.13551 16.5394C1.31108 17.5933 0.000488281 16.7151 0.000488281 15.153C0.000488281 13.4902 0.000488281 8.50072 0.000488281 8.50072C0.000488281 8.50072 0.000488281 3.51127 0.000488281 1.8484C0.000488281 0.286352 1.31027 -0.591842 3.13551 0.461991C5.97703 2.10291 14.5008 7.0273 14.5008 7.0273C15.6341 7.68188 15.6341 9.31874 14.5008 9.97332C14.5008 9.97413 5.97703 14.8985 3.13551 16.5394Z" fill="#99D100"/>
  </g>
  </g>
  <path d="M30.5111 11.4692L30.8289 10.7454C31.0456 10.2533 31.4357 10.1231 31.9269 10.4849C32.8659 11.1797 34.4117 11.6863 36.4775 11.6863C38.24 11.6863 38.9913 11.2376 38.9913 10.702C38.9913 10.0941 38.3701 9.93489 37.3443 9.80462L35.004 9.50067C32.1869 9.12434 30.7711 8.11114 30.7711 6.34529C30.7711 4.44917 32.3169 2.94385 35.8997 2.94385C37.8933 2.94385 39.1791 3.24781 40.017 3.56624C40.9416 3.92809 41.0716 4.23205 41.0716 4.98471V5.96896C41.0716 6.57687 40.8549 6.77951 40.2626 6.77951H39.598C38.9913 6.77951 38.789 6.5624 38.789 5.96896V5.65053C38.3989 5.52026 37.431 5.33209 36.3042 5.33209C34.325 5.33209 33.3715 5.69395 33.3715 6.30186C33.3715 6.75057 33.9494 7.0111 35.004 7.15584L37.301 7.4598C40.0748 7.80718 41.5483 8.64669 41.5483 10.6731C41.5483 12.7284 39.598 14.0456 36.1164 14.0456C33.5593 14.0456 31.5079 13.235 30.6845 12.4824C30.3955 12.1929 30.3522 11.831 30.5111 11.4692Z" fill="currentColor"/>
  <path d="M55.8784 13.8716H54.6938C54.1159 13.8716 53.9281 13.7847 53.6392 13.3505L51.4144 10.0649C51.0966 9.61617 50.851 9.50037 50.1864 9.50037H47.9616V13.061C47.9616 13.6689 47.7449 13.8716 47.1526 13.8716H46.3003C45.6935 13.8716 45.4913 13.6545 45.4913 13.061V2.37906H44.6967C44.0899 2.37906 43.8877 2.16195 43.8877 1.56851V0.844796C43.8877 0.23688 44.1044 0.0342407 44.6967 0.0342407H47.1671C47.7738 0.0342407 47.9761 0.251354 47.9761 0.844796V7.09765H49.9697C50.6343 7.09765 50.8654 6.99633 51.1977 6.53316L53.0613 3.65279C53.3647 3.20409 53.5525 3.11725 54.1303 3.11725H55.315C55.9651 3.11725 56.0806 3.63832 55.7195 4.17386L53.6392 7.32924C53.4225 7.6332 53.1624 7.95163 52.9168 8.21217C53.1769 8.42928 53.538 8.79114 53.6825 9.00825L56.2829 12.8439C56.6441 13.3505 56.514 13.8716 55.8784 13.8716Z" fill="currentColor"/>
  <path d="M60.1058 15.8399V15.1307C60.1058 14.5228 60.3225 14.3201 60.9148 14.3201H61.9405C62.5617 14.3201 62.8651 14.1899 63.0962 13.6977L63.2262 13.4227L58.3144 4.11581C58.011 3.55131 58.2566 3.13156 58.8922 3.13156H60.0046C60.5825 3.13156 60.8425 3.23288 61.0592 3.65263L63.1107 7.8791C63.5874 8.84887 64.1219 9.96339 64.5409 10.9332C64.9743 9.99234 65.4654 8.90677 65.9277 7.96595L68.0225 3.65263C68.2103 3.24736 68.4992 3.13156 69.0771 3.13156H70.1895C70.8396 3.13156 71.0707 3.56579 70.7674 4.11581L65.1765 14.7543C64.5264 15.9847 63.7896 16.6649 62.1138 16.6649H60.8859C60.308 16.6649 60.1058 16.4478 60.1058 15.8399Z" fill="currentColor"/>
  <path d="M85.8742 8.50194C85.8742 11.9179 83.3461 14.0456 79.9367 14.0456C78.4631 14.0456 77.3363 13.6837 76.5417 13.235V16.1588C76.5417 16.7667 76.325 16.9694 75.7327 16.9694H74.8804C74.2736 16.9694 74.0713 16.7522 74.0713 16.1588V5.47683H73.2768C72.67 5.47683 72.4678 5.25972 72.4678 4.66628V3.94257C72.4678 3.33465 72.6845 3.13201 73.2768 3.13201H75.3571C75.9639 3.13201 76.1661 3.34913 76.1661 3.94257V4.00046C76.9751 3.46492 78.2031 2.94385 79.9367 2.94385C83.3461 2.95832 85.8742 5.08603 85.8742 8.50194ZM83.3027 8.50194C83.3027 6.5045 81.6992 5.38999 79.7055 5.38999C78.2753 5.38999 77.1051 5.99791 76.5562 6.49003V10.5283C77.1196 11.0205 78.2753 11.6284 79.7055 11.6284C81.6992 11.6139 83.3027 10.4994 83.3027 8.50194Z" fill="currentColor"/>
  <path d="M99.333 7.66274C99.333 8.27065 99.1163 8.47329 98.524 8.47329H97.6716C97.0649 8.47329 96.8626 8.2996 96.8626 7.66274C96.8626 6.07057 96.2559 5.36134 94.8112 5.36134C93.4388 5.36134 92.2975 6.21532 91.6618 7.25746V13.0616C91.6618 13.6695 91.4451 13.8722 90.8528 13.8722H90.0005C89.3937 13.8722 89.1915 13.6551 89.1915 13.0616V5.47713H88.3969C87.7901 5.47713 87.5879 5.26002 87.5879 4.66657V3.94286C87.5879 3.33495 87.8046 3.13231 88.3969 3.13231H90.4772C91.084 3.13231 91.2862 3.34942 91.2862 3.94286V4.63763C92.0519 3.78365 93.2221 2.95862 95.2157 2.95862C98.1339 2.95862 99.333 4.69552 99.333 7.66274Z" fill="currentColor"/>
  <path d="M100.866 8.50224C100.866 5.31791 103.553 2.95862 107.122 2.95862C110.661 2.95862 113.334 5.31791 113.334 8.50224C113.334 11.701 110.647 14.0603 107.122 14.0603C103.553 14.0603 100.866 11.701 100.866 8.50224ZM110.878 8.50224C110.878 6.64954 109.245 5.30344 107.122 5.30344C104.955 5.30344 103.322 6.66402 103.322 8.50224C103.322 10.3694 104.955 11.73 107.122 11.73C109.26 11.73 110.878 10.3694 110.878 8.50224Z" fill="currentColor"/>
  <defs>
  <filter id="filter0_f_6_1663" x="-8.92896" y="-8.92799" width="33.209" height="34.8574" filterUnits="userSpaceOnUse" color-interpolation-filters="sRGB">
  <feFlood flood-opacity="0" result="BackgroundImageFix"/>
  <feBlend mode="normal" in="SourceGraphic" in2="BackgroundImageFix" result="shape"/>
  <feGaussianBlur stdDeviation="4.46473" result="effect1_foregroundBlur_6_1663"/>
  </filter>
  </defs>
  </svg>
  